# xmcd CD database file
#
# Track frame offsets:
#	150
#	39702
#	72640
#	100430
#	140525
#	165910
#	193720
#	216897
#
# Disc length: 3173 seconds
#
# Revision: 0
# Processed by: cddbd v1.5.2PL0 Copyright (c) Steve Scherf et al.
# Submitted via: CDex 1.70beta2
#
DISCID=780c6308
DTITLE=土岐英史 - IN A SENTIMENTAL MOOD
DYEAR=1992
DGENRE=Jazz
TTITLE0=IN A SETIMENTAL MOOD
TTITLE1=HOW INSENSITIVE
TTITLE2=YOU ARE TOO BEAUTIFUL
TTITLE3=MY FOOLISH HEART
TTITLE4=WYETH
TTITLE5=BLUES FO TOKO and YOKO
TTITLE6=WHO CARES?
TTITLE7=SMOKE GETS IN YOUR EYES
EXTD=YEAR: 1992
EXTT0=
EXTT1=
EXTT2=
EXTT3=
EXTT4=
EXTT5=
EXTT6=
EXTT7=
PLAYORDER=
